<?xml version="1.0" standalone="no"?>
<!DOCTYPE svg PUBLIC "-//W3C//DTD SVG 20010904//EN"
 "http://www.w3.org/TR/2001/REC-SVG-20010904/DTD/svg10.dtd">
<svg version="1.0" xmlns="http://www.w3.org/2000/svg"
 width="160.000000pt" height="160.000000pt" viewBox="0 0 160.000000 160.000000"
 preserveAspectRatio="xMidYMid meet">
<metadata>
Created by potrace 1.11, written by Peter Selinger 2001-2013
</metadata>
<g transform="translate(0.000000,160.000000) scale(0.100000,-0.100000)"
fill="#000000" stroke="none">
<path d="M211 809 l0 -689 32 -1 c40 -1 327 -1 345 0 9 1 12 50 12 211 l0 210
84 0 c78 0 85 -2 91 -21 4 -12 38 -85 75 -163 37 -77 77 -162 89 -188 25 -55
-4 -50 264 -50 92 0 170 2 173 4 4 5 -48 118 -173 374 l-49 101 50 46 c82 75
115 166 121 330 4 125 -18 256 -55 328 -26 50 -80 106 -126 131 -105 57 -145
61 -556 64 l-377 2 0 -689z m427 416 c13 -27 29 -45 39 -46 10 0 52 -2 93 -3
118 -4 119 -4 134 -33 17 -34 17 -276 0 -293 -20 -20 -69 -27 -184 -26 l-115
1 -3 223 c-1 122 1 222 6 222 4 0 18 -20 30 -45z"/>
</g>
</svg>
